<?xml version="1.0" encoding="UTF-8" standalone="no"?>
<!-- Created with Inkscape (http://www.inkscape.org/) -->

<svg
   xmlns:dc="http://purl.org/dc/elements/1.1/"
   xmlns:cc="http://creativecommons.org/ns#"
   xmlns:rdf="http://www.w3.org/1999/02/22-rdf-syntax-ns#"
   xmlns:svg="http://www.w3.org/2000/svg"
   xmlns="http://www.w3.org/2000/svg"
   xmlns:sodipodi="http://sodipodi.sourceforge.net/DTD/sodipodi-0.dtd"
   xmlns:inkscape="http://www.inkscape.org/namespaces/inkscape"
   width="210mm"
   height="297mm"
   viewBox="0 0 210 297"
   version="1.1"
   id="svg8"
   inkscape:version="0.92.3 (2405546, 2018-03-11)"
   sodipodi:docname="Tree.svg">
  <defs
     id="defs2">
	
	
	
</defs>
  <sodipodi:namedview
     id="base"
     pagecolor="#ffffff"
     bordercolor="#666666"
     borderopacity="1.0"
     inkscape:pageopacity="0.0"
     inkscape:pageshadow="2"
     inkscape:zoom="0.52977626"
     inkscape:cx="342.85725"
     inkscape:cy="526.13562"
     inkscape:document-units="mm"
     inkscape:current-layer="layer1"
     showgrid="false"
     inkscape:window-width="1920"
     inkscape:window-height="1017"
     inkscape:window-x="-8"
     inkscape:window-y="-8"
     inkscape:window-maximized="1" />
  <metadata
     id="metadata5">
    <rdf:RDF>
      <cc:Work
         rdf:about="">
        <dc:format>image/svg+xml</dc:format>
        <dc:type
           rdf:resource="http://purl.org/dc/dcmitype/StillImage" />
        <dc:title></dc:title>
      </cc:Work>
    </rdf:RDF>
  </metadata>
  <g
     inkscape:label="Layer 1"
     inkscape:groupmode="layer"
     id="layer1">
    <path
       style="fill:#010101;stroke-width:0.26458332"
       inkscape:connector-curvature="0"
       d="M 335.33159,316.70313"
       id="path815" />
    <path
       style="fill:#010101;stroke-width:0.26458332"
       inkscape:connector-curvature="0"
       d="M 334.3598,317.66196"
       id="path817" />
    <path
       inkscape:connector-curvature="0"
       d="m 69.470796,104.13803 c -1.031875,-0.79375 -2.196042,-1.42875 -3.439584,-1.87854 -1.613958,3.09562 -1.931458,6.82625 -0.582083,10.31875 0.846667,2.19604 2.248958,3.9952 3.995208,5.34458 1.031875,0.79375 2.196042,1.42875 3.413125,1.87854 1.613959,-3.06917 1.931459,-6.82625 0.582084,-10.31875 -0.846667,-2.19604 -2.248959,-3.99521 -3.96875,-5.34458 z"
       id="path855"
       style="stroke-width:0.26458332;fill:#008000" />
    <path
       inkscape:connector-curvature="0"
       d="m 103.20517,82.600944 c -1.61396,0.79375 -3.12208,1.772708 -4.497916,2.910417 -3.439584,2.8575 -6.058959,6.773333 -7.3025,11.403541 -0.15875,0.582084 -0.291042,1.164167 -0.396875,1.74625 -0.502709,2.751668 -0.47625,5.503338 0,8.122708 0.555625,3.04271 1.74625,5.90021 3.439583,8.44021 1.508125,-0.74083 2.936875,-1.64042 4.259792,-2.72521 3.095626,-2.48708 5.556246,-5.82083 6.984996,-9.76312 0.21167,-0.60855 0.42334,-1.21709 0.58209,-1.82563 1.24354,-4.603749 0.92604,-9.286874 -0.58209,-13.440833 -0.635,-1.719791 -1.4552,-3.360208 -2.48708,-4.868333 z"
       id="path857"
       style="stroke-width:0.26458332;fill:#008000" />
    <path
       inkscape:connector-curvature="0"
       d="m 91.007879,76.436153 c 1.349375,1.11125 2.804583,2.037291 4.365625,2.804583 1.5875,-2.38125 2.725208,-5.053542 3.33375,-7.858125 0.635,-2.989792 0.661458,-6.138333 0,-9.313333 -0.07938,-0.370417 -0.15875,-0.767292 -0.264584,-1.137709 -1.27,-4.709583 -3.942291,-8.651874 -7.434791,-11.535833 -1.349375,-1.11125 -2.831042,-2.037291 -4.365625,-2.804583 -3.466042,5.185833 -4.788959,11.773958 -3.042709,18.309166 1.243542,4.709584 3.915834,8.678334 7.408334,11.535834 z"
       id="path859"
       style="stroke-width:0.26458332;fill:#008000" />
    <path
       inkscape:connector-curvature="0"
       d="m 105.18955,60.931569 c -1.21709,4.524375 -0.9525,9.128125 0.5027,13.255625 0.635,1.799167 1.48167,3.4925 2.54,5.053542 1.56105,-0.767292 3.01625,-1.693333 4.36563,-2.804583 3.4925,-2.8575 6.16479,-6.82625 7.43479,-11.535834 1.74625,-6.50875 0.42333,-13.123333 -3.04271,-18.309166 -1.56104,0.767292 -3.01625,1.693333 -4.39208,2.804583 -3.09563,2.54 -5.52979,5.900208 -6.93208,9.895417 -0.15875,0.555625 -0.3175,1.11125 -0.47625,1.640416 z"
       id="path861"
       style="stroke-width:0.26458332;fill:#008000" />
    <path
       inkscape:connector-curvature="0"
       d="m 101.51184,51.194903 c 1.77271,-1.217083 3.20146,-2.883958 4.18041,-4.841875 0.58209,-1.243542 1.00542,-2.592917 1.16417,-4.021667 0.29104,-2.460625 -0.15875,-4.815416 -1.16417,-6.905625 -0.52916,-1.084791 -1.19062,-2.06375 -1.98437,-2.936875 -2.38125,1.640417 -4.15396,4.048125 -4.974168,6.932084 -0.185208,0.635 -0.3175,1.27 -0.396875,1.931458 -0.185208,1.666875 -0.02646,3.280833 0.396875,4.815417 0.529167,1.878541 1.481668,3.598333 2.778128,5.027083 z"
       id="path863"
       style="stroke-width:0.26458332;fill:#008000" />
    <path
       inkscape:connector-curvature="0"
       d="m 134.16142,56.962819 c 1.61396,-3.069166 1.95792,-6.826249 0.58208,-10.318749 -1.37583,-3.4925 -4.15396,-6.0325 -7.43479,-7.223125 -1.61396,3.095625 -1.93146,6.82625 -0.55562,10.345208 1.37583,3.4925 4.1275,6.0325 7.40833,7.196666 z"
       id="path865"
       style="stroke-width:0.26458332;fill:#008000" />
    <path
       inkscape:connector-curvature="0"
       d="m 67.539337,98.052611 c 0.687917,-0.635 1.322917,-1.296459 1.931459,-2.010834 3.413125,-4.048125 5.423958,-9.339791 5.23875,-15.08125 -0.15875,-5.238749 -2.090209,-10.001249 -5.23875,-13.731874 -0.899584,-1.058334 -1.878542,-2.037292 -2.963334,-2.910417 -4.577291,4.28625 -7.355416,10.398125 -7.170208,17.118541 0.211667,6.720417 3.360208,12.673542 8.202083,16.615834 z"
       id="path867"
       style="stroke-width:0.26458332;fill:#008000" />
    <path
       inkscape:connector-curvature="0"
       d="m 78.413712,53.338028 c 0.185209,-3.730625 -1.296458,-7.170208 -3.81,-9.577917 -2.725208,2.143125 -4.550833,5.450417 -4.709583,9.154583 -0.211667,3.783542 1.296458,7.196667 3.81,9.630834 2.725208,-2.143125 4.550833,-5.450417 4.709583,-9.2075 z"
       id="path869"
       style="stroke-width:0.26458332;fill:#008000" />
    <path
       inkscape:connector-curvature="0"
       d="m 185.96684,107.89511 c -1.42875,2.30188 -2.43417,4.84188 -2.96334,7.48771 0.97896,0.34396 1.95792,0.60854 2.96334,0.82021 5.13291,1.03187 10.63625,0.26458 15.50458,-2.51354 2.8575,-1.64042 5.23875,-3.81 7.03792,-6.32355 1.87854,-2.61937 3.175,-5.60916 3.81,-8.731246 -1.24355,-0.423333 -2.51355,-0.767292 -3.81,-0.9525 -4.86834,-0.79375 -10.02771,0.02646 -14.68438,2.672296 -3.30729,1.85208 -5.97958,4.49791 -7.85812,7.54062 z"
       id="path871"
       style="stroke-width:0.26458332;fill:#008000" />
    <path
       inkscape:connector-curvature="0"
       d="m 45.869963,65.614694 c 1.508125,2.460625 3.81,4.233334 6.402916,5.185834 1.613959,-3.069167 1.931459,-6.82625 0.582084,-10.31875 -1.296459,-3.360209 -3.915834,-5.794375 -6.985,-7.037917 -0.132292,-0.05292 -0.291042,-0.105833 -0.449792,-0.15875 -1.613958,3.042708 -1.931458,6.799792 -0.582083,10.31875 0.3175,0.687917 0.661458,1.375833 1.031875,2.010833 z"
       id="path873"
       style="stroke-width:0.26458332;fill:#008000" />
    <path
       inkscape:connector-curvature="0"
       d="m 185.96684,126.68053 c -0.68792,0.3175 -1.37584,0.66146 -2.0373,1.03187 -0.47625,0.26459 -0.9525,0.55563 -1.37583,0.84667 -5.05354,3.38667 -8.33437,8.5725 -9.44562,14.18167 3.01625,1.05833 6.24416,1.4552 9.44562,1.16416 1.13771,-0.10583 2.30188,-0.29104 3.41313,-0.58208 1.905,-0.50271 3.78354,-1.24354 5.5827,-2.27542 5.87375,-3.33375 9.63084,-8.94291 10.84792,-15.05479 -5.21229,-1.82562 -11.08604,-1.69333 -16.43062,0.68792 z"
       id="path875"
       style="stroke-width:0.26458332;fill:#008000" />
    <path
       inkscape:connector-curvature="0"
       d="m 128.65809,75.536569 c -1.74625,6.50875 -0.42334,13.123333 3.06916,18.309167 1.56104,-0.767292 3.01625,-1.693334 4.36563,-2.804584 3.51896,-2.8575 6.16479,-6.82625 7.43479,-11.509375 1.74625,-6.508749 0.42333,-13.123333 -3.04271,-18.309166 -1.56104,0.767292 -3.04271,1.719792 -4.39208,2.804583 -3.51896,2.8575 -6.16479,6.799792 -7.43479,11.509375 z"
       id="path877"
       style="stroke-width:0.26458332;fill:#008000" />
    <path
       inkscape:connector-curvature="0"
       d="m 185.96684,90.220944 c -1.37584,2.06375 -2.09021,4.497917 -2.09021,6.905625 0.68791,0.105833 1.37583,0.132292 2.09021,0.105833 2.80458,-0.07937 5.5827,-1.084791 7.83166,-3.069166 2.83104,-2.434167 4.25979,-5.926667 4.25979,-9.392709 -3.43958,-0.47625 -7.06437,0.502709 -9.89541,2.963334 -0.84667,0.740833 -1.5875,1.5875 -2.19604,2.487083 z"
       id="path879"
       style="stroke-width:0.26458332;fill:#008000" />
    <path
       inkscape:connector-curvature="0"
       d="m 204.69934,120.78032 c 1.1377,0.87312 2.43416,1.53458 3.81,1.95792 1.98437,0.60854 4.1275,0.74083 6.27062,0.29104 3.67771,-0.74084 6.64104,-3.06917 8.33438,-6.08542 -2.75167,-2.09021 -6.37646,-3.04271 -10.08063,-2.27542 -1.66687,0.34396 -3.20146,1.00542 -4.55083,1.93146 -1.56104,1.08479 -2.8575,2.54 -3.78354,4.18042 z"
       id="path881"
       style="stroke-width:0.26458332;fill:#008000" />
    <path
       inkscape:connector-curvature="0"
       d="m 154.98413,69.133653 c -2.72521,4.947708 -3.36021,10.609791 -2.14313,15.822083 0.71438,-0.05292 1.42875,-0.15875 2.14313,-0.291042 2.72521,-0.529167 5.37104,-1.534583 7.72583,-3.042708 2.35479,-1.481667 4.49792,-3.439583 6.21771,-5.847292 3.94229,-5.450416 5.08,-12.091458 3.67771,-18.203333 -3.4925,0.3175 -6.87917,1.455208 -9.89542,3.33375 -2.35479,1.481667 -4.49792,3.439583 -6.24417,5.847292 -0.52916,0.767291 -1.03187,1.561041 -1.48166,2.38125 z"
       id="path883"
       style="stroke-width:0.26458332;fill:#008000" />
    <path
       inkscape:connector-curvature="0"
       d="m 182.55371,79.558236 c 1.16417,-0.132292 2.30188,-0.396875 3.41313,-0.873125 0.47625,-0.185208 0.92604,-0.423333 1.37583,-0.661458 3.28083,-1.852084 5.37104,-4.947709 6.08542,-8.360834 -2.38125,-0.846666 -4.97417,-0.978958 -7.46125,-0.291041 -0.9525,0.264583 -1.905,0.635 -2.80459,1.164166 -0.21166,0.105834 -0.42333,0.238125 -0.60854,0.370417 -2.93687,1.878542 -4.84187,4.788958 -5.50333,7.990417 1.74625,0.608541 3.62479,0.846666 5.50333,0.661458 z"
       id="path885"
       style="stroke-width:0.26458332;fill:#008000" />
    <path
       inkscape:connector-curvature="0"
       d="m 149.56017,61.936986 c 2.09021,-0.767292 3.99521,-2.116667 5.42396,-3.915833 0.79375,-0.978959 1.45521,-2.116667 1.93146,-3.360209 1.32291,-3.492499 0.97895,-7.249583 -0.635,-10.318749 -0.42334,0.15875 -0.87313,0.343958 -1.27,0.555625 -2.46063,1.217083 -4.49792,3.254375 -5.74146,5.87375 -0.13229,0.264583 -0.23813,0.555625 -0.34396,0.820208 -1.24354,3.280833 -1.03188,6.773333 0.34396,9.736666 0.0794,0.211667 0.18521,0.423334 0.29104,0.608542 z"
       id="path887"
       style="stroke-width:0.26458332;fill:#008000" />
    <path
       inkscape:connector-curvature="0"
       d="m 162.73642,92.602194 c -0.635,0.529167 -1.24354,1.058333 -1.82563,1.666875 -3.01625,3.01625 -4.97416,6.693961 -5.9002,10.556871 -0.52917,2.24896 -0.71438,4.55084 -0.55563,6.82625 0.18521,0 0.37042,0.0265 0.55563,0.0265 2.61937,0.10584 5.23875,-0.23812 7.72583,-1.03187 3.33375,-1.05834 6.42937,-2.91042 9.07521,-5.55625 4.7625,-4.7625 6.90562,-11.165419 6.45583,-17.409586 -5.47687,-0.343958 -11.05958,1.296458 -15.53104,4.92125 z"
       id="path889"
       style="stroke-width:0.26458332;fill:#008000" />
    <path
       inkscape:connector-curvature="0"
       d="m 2.7164215,89.162611 c 0.8202083,0.608541 1.6933333,1.137708 2.5929166,1.508125 2.2489583,0.978958 4.7095829,1.243541 7.0643749,0.873125 0.132292,-0.02646 0.264583,-0.05292 0.423333,-0.07938 -0.05292,-0.846667 -0.185208,-1.693334 -0.423333,-2.513542 -0.687917,-2.54 -2.196042,-4.894792 -4.4449999,-6.614583 -0.8202083,-0.635 -1.6933333,-1.137709 -2.619375,-1.534584 -2.38125,-1.031875 -5.00062492,-1.296458 -7.4612499,-0.767291 0.2116667,3.439583 1.87854165,6.82625 4.8683333,9.128125 z"
       id="path891"
       style="stroke-width:0.26458332;fill:#008000" />
    <path
       inkscape:connector-curvature="0"
       d="m 154.98413,170.44261 c 2.61937,-0.9525 5.21229,-1.85208 7.72583,-2.83104 7.69938,-2.93688 14.76375,-6.37646 19.81729,-12.54125 1.27,-1.56104 2.43417,-3.28084 3.41313,-5.21229 0.79375,-1.50813 1.48166,-3.14855 2.09021,-4.94771 -0.66146,0.52916 -1.34938,1.03187 -2.09021,1.50812 -1.08479,0.71438 -2.2225,1.37584 -3.41313,2.01084 -5.55625,2.91041 -12.43541,5.15937 -19.81729,7.27604 -2.54,0.71437 -5.13292,1.42875 -7.72583,2.16958 -1.66688,0.44979 -3.33375,0.92604 -5.00063,1.40229 1.42875,-2.51354 3.09563,-5.18583 5.00063,-7.88458 2.24896,-3.175 4.81541,-6.35 7.72583,-9.36625 3.09563,-3.20146 6.58813,-6.21771 10.50396,-8.78417 -3.46604,1.21709 -6.985,3.12209 -10.50396,5.50334 -2.59292,1.77271 -5.18583,3.78354 -7.72583,5.97958 -1.93146,1.66687 -3.86292,3.43958 -5.74146,5.26521 -4.445,4.33916 -8.62542,8.99583 -12.40896,13.44083 l -0.76729,0.29104 c -9.36625,3.41313 -17.83292,7.80521 -23.46854,14.39334 -1.93146,2.24895 -3.51896,4.73604 -4.70958,7.54062 -0.18521,-9.44562 1.61395,-17.35667 4.70958,-24.07708 5.15937,-11.19188 13.97,-19.05 23.46854,-24.97667 4.33917,-2.69875 8.83708,-5.02708 13.17625,-7.06437 1.95792,-0.92604 3.86292,-1.77271 5.74146,-2.59292 2.72521,-1.19062 5.31812,-2.30187 7.72583,-3.38667 8.67833,-3.83645 14.86958,-7.06437 14.86958,-11.48291 -4.445,3.70416 -9.57791,5.50333 -14.86958,6.64104 -2.56646,0.55562 -5.18583,0.9525 -7.72583,1.34937 -1.95792,0.29105 -3.86292,0.58209 -5.74146,0.92605 -2.11667,0.39687 -4.18042,0.87312 -6.11188,1.50812 5.08,-15.24 6.87917,-22.14562 2.09021,-36.538958 0,18.441458 -2.27541,28.178128 -9.15458,36.221458 -1.64042,1.905 -3.51896,3.70417 -5.715,5.52979 -4.78896,3.94229 -11.58875,7.62 -17.75354,12.64709 -2.46063,2.01083 -4.81542,4.23333 -6.93208,6.77333 -0.39688,0.47625 -0.79375,0.97896 -1.16417,1.48166 0,-3.14854 0.42333,-6.13833 1.16417,-9.04874 1.4552,-5.76792 4.10104,-11.16542 6.93208,-16.58938 7.06437,-13.62604 15.08125,-27.437291 7.56708,-47.942499 -0.89958,12.435416 -3.96875,21.193125 -7.56708,28.336879 -2.24896,4.445 -4.68313,8.255 -6.93208,11.9327 -2.64584,4.33917 -5.00063,8.49313 -6.402921,13.25563 l -0.582084,-0.47625 C 95.664545,125.64865 93.098087,123.2674 90.98142,120.93907 77.752254,106.49282 80.239337,93.475319 83.070379,73.472819 66.375171,123.53199 90.902045,115.30344 90.902045,153.87969 82.88517,143.45511 75.450379,136.07324 69.444337,128.63844 60.316212,117.36719 54.389546,105.93719 54.389546,83.394694 c -5.106458,25.399996 4.259791,39.396456 15.054791,54.530626 8.307917,11.61521 17.436042,23.86541 21.537083,42.41271 0.767292,3.46604 1.349375,7.14375 1.74625,11.05958 -0.582083,-0.66146 -1.164166,-1.32292 -1.74625,-1.95792 -7.090833,-7.85812 -14.075833,-13.81125 -21.537083,-19.05 -1.217083,-0.84666 -2.434166,-1.69333 -3.677708,-2.51354 -6.905625,-13.20271 -8.069792,-28.54854 -19.896666,-41.22208 -0.873125,-0.92604 -1.799167,-1.85208 -2.804584,-2.75167 1.031875,1.53459 1.957917,3.06917 2.804584,4.60375 6.297083,11.53584 7.46125,23.30979 11.588749,34.10479 -3.677708,-2.2225 -7.514166,-4.445 -11.588749,-6.79979 -2.831042,-1.64042 -5.767917,-3.33375 -8.837084,-5.13292 -5.371041,-3.14854 -11.138958,-6.58812 -17.383124,-10.55687 -1.772709,-1.13771 -3.571875,-2.30187 -5.423959,-3.51896 0.07937,3.25438 2.169584,6.32354 5.423959,9.31333 4.418541,4.10105 10.980208,8.09625 17.383124,12.35605 3.069167,2.03729 6.085417,4.1275 8.837084,6.35 3.704166,2.96333 6.932083,6.11187 9.022291,9.55145 -1.666875,-0.55562 -4.841875,-1.29645 -9.022291,-2.0902 -2.619375,-0.50271 -5.609167,-1.00542 -8.837084,-1.50813 -5.318125,-0.79375 -11.297708,-1.50812 -17.383124,-1.98437 -2.434167,-0.18521 -4.868334,-0.34396 -7.276042,-0.4498 -2.3812499,-0.10583 -4.7624999,-0.15875 -7.0643749,-0.13229 -9.6837499,0.0529 -18.3356251,1.16417 -23.2568751,4.15396 -0.238125,0.15875 -0.47625,0.29104 -0.714375,0.44979 h 0.714375 c 7.9375,0.0265 15.7427085,0.34396 23.2568751,1.08479 2.38125,0.23813 4.7360419,0.50271 7.0643749,0.82021 2.460625,0.3175 4.894792,0.71438 7.276042,1.13771 6.085416,1.08479 11.906249,2.48708 17.383124,4.25979 3.069167,0.97896 6.006042,2.09021 8.837084,3.30729 9.339791,4.04813 17.356666,9.39271 23.600833,16.35125 5.344583,6.00605 9.36625,13.17625 11.747499,21.74875 1.5875,5.76792 2.090209,29.47459 -2.857499,36.53896 h 42.333334 c -4.02167,-5.55625 -7.22313,-21.37833 -8.06979,-30.82396 -0.23813,-2.69875 -0.29104,-4.86833 -0.13229,-6.13833 0.0529,-0.29104 0.0794,-0.58208 0.13229,-0.87312 3.30729,-22.75417 12.48833,-34.07834 23.46854,-40.9575 4.20687,-2.64584 8.67833,-4.65667 13.17625,-6.40292 1.905,-0.84667 3.81,-1.53458 5.715,-2.2225 z"
       id="path893"
       style="stroke-width:0.26458332;fill:#552200" />
    <path
       inkscape:connector-curvature="0"
       d="m 152.28538,187.53469 c -0.92604,-0.89958 -1.93146,-1.66687 -3.04271,-2.2225 -2.06375,-1.08479 -4.39208,-1.56104 -6.6675,-1.40229 -0.23813,3.4925 0.9525,7.03792 3.62479,9.68375 0.92604,0.92604 1.93146,1.66688 3.01625,2.2225 1.79917,0.9525 3.75708,1.42875 5.74146,1.42875 0.3175,0 0.60854,0 0.92604,-0.0265 0.13229,-1.93146 -0.18521,-3.86291 -0.92604,-5.66208 -0.58208,-1.45521 -1.48167,-2.83104 -2.67229,-4.02167 z"
       id="path895"
       style="stroke-width:0.26458332;fill:#008000" />
    <path
       inkscape:connector-curvature="0"
       d="m 19.649755,182.19011 c -0.47625,0.10583 -0.9525,0.23812 -1.455209,0.42333 -2.434166,0.87313 -4.418541,2.43417 -5.847291,4.36563 -0.635,0.87312 -1.164167,1.85208 -1.561042,2.8575 0.502708,0.29104 1.031875,0.52916 1.561042,0.74083 2.275416,0.87313 4.788958,1.11125 7.276041,0.55563 0.47625,-0.10584 0.978959,-0.26459 1.455209,-0.42334 3.518958,-1.27 6.138333,-3.96875 7.408333,-7.22312 -2.592917,-1.48167 -5.741458,-1.98438 -8.837083,-1.29646 z"
       id="path897"
       style="stroke-width:0.26458332;fill:#008000" />
    <path
       inkscape:connector-curvature="0"
       d="m 182.55371,176.68678 c -3.73062,-2.75167 -8.33437,-4.39209 -13.30854,-4.39209 -2.27542,0 -4.47146,0.34396 -6.53521,0.9525 -2.8575,0.87313 -5.47687,2.30188 -7.72583,4.15396 -0.9525,0.79375 -1.85209,1.66688 -2.64584,2.59292 0.82021,0.92604 1.69334,1.79916 2.64584,2.56646 2.24896,1.85208 4.86833,3.28083 7.72583,4.1275 2.06375,0.635 4.25979,0.9525 6.53521,0.9525 4.97417,0 9.57792,-1.61396 13.30854,-4.36563 1.24354,-0.92604 2.40771,-1.95792 3.41313,-3.12208 l 0.15875,-0.18521 -0.15875,-0.18521 c -1.03188,-1.11125 -2.16959,-2.16958 -3.41313,-3.09562 z"
       id="path899"
       style="stroke-width:0.26458332;fill:#008000" />
    <path
       inkscape:connector-curvature="0"
       d="m 202.45038,181.21115 c -3.38667,-1.61396 -7.14375,-1.56104 -10.34521,-0.15875 0.9525,3.36021 3.28083,6.29708 6.6675,7.91104 3.175,1.50813 6.6675,1.56104 9.71021,0.42334 0.21166,-0.0794 0.42333,-0.15875 0.635,-0.23813 -0.15875,-0.58208 -0.37042,-1.16417 -0.635,-1.71979 -1.13771,-2.64583 -3.22792,-4.86833 -6.0325,-6.21771 z"
       id="path901"
       style="stroke-width:0.26458332;fill:#008000" />
    <path
       inkscape:connector-curvature="0"
       d="m 208.50934,144.75157 c -0.55563,-0.18521 -1.13771,-0.3175 -1.74625,-0.42333 -3.70417,-0.58209 -7.3025,0.52916 -9.9748,2.75166 1.87855,2.96333 4.92125,5.10646 8.65188,5.715 1.03187,0.15875 2.06375,0.18521 3.06917,0.10583 2.56645,-0.23812 4.97416,-1.27 6.87916,-2.8575 -1.53458,-2.46062 -3.94229,-4.36562 -6.87916,-5.29166 z"
       id="path903"
       style="stroke-width:0.26458332;fill:#008000" />
    <path
       inkscape:connector-curvature="0"
       d="m 213.74809,130.51699 c -1.93146,0.1852 -3.70417,0.8202 -5.23875,1.74625 -1.45521,0.89958 -2.72521,2.06375 -3.70417,3.43958 1.08479,1.03187 2.32833,1.85208 3.70417,2.43417 1.87854,0.79375 3.94229,1.1377 6.08541,0.92604 3.73063,-0.37042 6.93209,-2.38125 8.94292,-5.21229 -2.51354,-2.40771 -6.05896,-3.70417 -9.78958,-3.33375 z"
       id="path905"
       style="stroke-width:0.26458332;fill:#008000" />
    <path
       inkscape:connector-curvature="0"
       d="m 37.032879,89.533027 c 2.725209,1.666875 5.741459,2.725209 8.837084,3.122084 0.47625,0.05292 0.926041,0.105833 1.402291,0.132291 0.899584,-4.471458 0.47625,-9.181041 -1.402291,-13.467291 -0.714375,-1.613958 -1.613959,-3.175 -2.725209,-4.630208 -1.719791,-2.275417 -3.81,-4.1275 -6.111875,-5.55625 -3.122083,-1.905 -6.641041,-3.01625 -10.239374,-3.227917 -1.27,6.111875 0.02646,12.726458 4.127499,18.071041 1.719792,2.301875 3.81,4.153959 6.111875,5.55625 z"
       id="path907"
       style="stroke-width:0.26458332;fill:#008000" />
    <path
       inkscape:connector-curvature="0"
       d="m 197.23809,157.34573 c -4.41855,0.87313 -8.255,2.96334 -11.27125,5.87375 -1.29646,1.27 -2.46063,2.69875 -3.41313,4.2598 -0.13229,0.23812 -0.26458,0.44979 -0.39687,0.68791 0.13229,0.10584 0.26458,0.21167 0.39687,0.3175 1.08479,0.79375 2.2225,1.48167 3.41313,2.09021 4.25979,2.09021 9.2075,2.88396 14.23458,1.87854 3.06917,-0.60854 5.87375,-1.79916 8.30792,-3.46604 2.80458,-1.905 5.10645,-4.41854 6.77333,-7.3025 -2.01083,-1.56104 -4.31271,-2.80458 -6.77333,-3.59833 -3.51896,-1.21709 -7.38188,-1.50813 -11.27125,-0.74084 z"
       id="path909"
       style="stroke-width:0.26458332;fill:#008000" />
    <path
       inkscape:connector-curvature="0"
       d="m 5.3093381,182.16365 c -3.9952083,-3.70417 -9.3397915,-5.95312 -15.2135415,-5.95312 -2.8310416,0 -5.5297916,0.52916 -8.0433336,1.48166 -3.439583,1.32292 -6.482291,3.46604 -8.837083,6.19125 2.38125,2.72521 5.3975,4.86834 8.837083,6.19125 2.487084,0.97896 5.212292,1.50813 8.0433336,1.50813 5.87375,0 11.2183332,-2.27542 15.2135415,-5.95313 0.5820833,-0.55562 1.1641667,-1.13771 1.6933333,-1.74625 -0.5291666,-0.58208 -1.0847916,-1.16416 -1.6933333,-1.71979 z"
       id="path911"
       style="stroke-width:0.26458332;fill:#008000" />
    <path
       inkscape:connector-curvature="0"
       d="m 12.797046,78.182403 c 1.296459,3.280833 3.836459,5.741458 6.879167,6.984999 0.185208,0.07937 0.370417,0.132292 0.555625,0.211667 1.613958,-3.069167 1.931458,-6.82625 0.582083,-10.31875 -0.3175,-0.79375 -0.687916,-1.561041 -1.137708,-2.248958 -1.508125,-2.354792 -3.757083,-4.074583 -6.270625,-4.974167 -0.423333,0.820209 -0.767292,1.693334 -1.005417,2.619375 -0.555625,2.06375 -0.582083,4.28625 0,6.429375 0.07937,0.449792 0.211667,0.873125 0.396875,1.296459 z"
       id="path913"
       style="stroke-width:0.26458332;fill:#008000" />
    <path
       inkscape:connector-curvature="0"
       d="m 0.36162985,113.58365 c 1.58749995,1.08479 3.25437495,1.93146 4.97416655,2.56646 2.301875,0.84667 4.6831246,1.29646 7.0643746,1.37583 2.116667,0.0529 4.206875,-0.1852 6.244167,-0.68791 -0.555625,-4.86834 -2.69875,-9.525 -6.244167,-13.14979 -1.005416,-1.00542 -2.090208,-1.93146 -3.3072913,-2.77813 -1.1906249,-0.82021 -2.4606249,-1.508124 -3.7570833,-2.090208 -4.65666656,-2.037291 -9.7895832,-2.38125 -14.5256248,-1.164166 0.6879167,6.217704 3.9952083,12.117914 9.55145825,15.927914 z"
       id="path915"
       style="stroke-width:0.26458332;fill:#008000" />
    <path
       inkscape:connector-curvature="0"
       d="m 19.649755,123.9024 c -0.15875,0.0265 -0.291042,0.0794 -0.449792,0.10584 0.105833,0.87312 0.238125,1.74625 0.449792,2.59291 1.217083,5.23875 4.339166,10.05417 9.101666,13.335 2.566458,1.77271 5.3975,2.93688 8.281458,3.51896 2.936875,0.58208 5.953125,0.58208 8.837084,0 0.396875,-0.0794 0.79375,-0.15875 1.164166,-0.26458 -0.211666,-1.71979 -0.608541,-3.38667 -1.164166,-5.00063 -1.534584,-4.28625 -4.365625,-8.14916 -8.387292,-10.92729 -0.15875,-0.10583 -0.291042,-0.21167 -0.449792,-0.29104 -5.318125,-3.4925 -11.588749,-4.41854 -17.383124,-3.06917 z"
       id="path917"
       style="stroke-width:0.26458332;fill:#008000" />
    <path
       inkscape:connector-curvature="0"
       d="m -17.947537,162.3199 c 0.264584,-0.34396 0.502709,-0.68792 0.714375,-1.05833 -0.238125,-0.18521 -0.47625,-0.37042 -0.714375,-0.52917 -2.619375,-1.82562 -5.926666,-2.61937 -9.313333,-2.01083 -3.704166,0.68791 -6.720416,2.91041 -8.493125,5.92666 2.725209,2.16959 6.323542,3.175 10.027709,2.51355 3.254374,-0.60855 5.953124,-2.40771 7.778749,-4.84188 z"
       id="path919"
       style="stroke-width:0.26458332;fill:#008000" />
    <path
       inkscape:connector-curvature="0"
       d="m 32.534963,113.08094 c 1.402291,1.21709 2.910416,2.2225 4.497916,3.04271 2.778125,1.42875 5.794375,2.2225 8.837084,2.38125 1.481666,0.0794 2.989791,0.0265 4.445,-0.18521 -0.02646,-4.70958 -1.534584,-9.41916 -4.445,-13.335 -0.9525,-1.27 -2.037292,-2.46062 -3.280834,-3.51895 -1.719791,-1.481671 -3.598333,-2.672296 -5.55625,-3.545421 -3.889375,-1.719792 -8.149166,-2.301875 -12.276666,-1.719792 0.05292,6.217713 2.672292,12.435413 7.77875,16.880413 z"
       id="path921"
       style="stroke-width:0.26458332;fill:#008000" />
    <path
       inkscape:connector-curvature="0"
       d="m -22.392537,148.95844 c 1.561042,0.13229 3.042709,-0.0265 4.445,-0.42333 2.010834,-0.58208 3.81,-1.64042 5.265209,-3.06917 -1.322917,-1.79916 -3.148542,-3.25437 -5.265209,-4.15395 -1.164166,-0.47625 -2.434166,-0.79375 -3.783541,-0.89959 -3.704167,-0.3175 -7.223125,1.08479 -9.736667,3.51896 2.090209,2.77812 5.344584,4.70958 9.075208,5.02708 z"
       id="path923"
       style="stroke-width:0.26458332;fill:#008000" />
    <path
       inkscape:connector-curvature="0"
       d="m 8.3785047,147.47678 c -1.0318749,-0.23813 -2.0372916,-0.42334 -3.0427083,-0.52917 -5.50333321,-0.58208 -10.8479165,0.92604 -15.1606248,3.94229 2.8575,5.55625 7.9904166,9.89542 14.5256249,11.53583 0.2116666,0.0529 0.4233333,0.10584 0.6349999,0.15875 2.38125,0.50271 4.7624996,0.635 7.0643746,0.39688 2.566459,-0.26458 5.027084,-0.9525 7.276042,-2.03729 1.137708,-0.55563 2.2225,-1.19063 3.254375,-1.905 -0.873125,-1.71979 -1.984375,-3.30729 -3.254375,-4.73604 -2.010833,-2.2225 -4.471458,-4.07459 -7.276042,-5.3975 -1.296458,-0.58209 -2.6193746,-1.05834 -4.0216663,-1.42875 z"
       id="path925"
       style="stroke-width:0.26458332;fill:#008000" />
    <path
       inkscape:connector-curvature="0"
       d="m -12.417745,135.75574 c 5.3974999,3.70416 11.82687486,4.73604 17.7270831,3.38666 0.1852083,-0.0529 0.3439583,-0.0794 0.5291667,-0.13229 -0.1058334,-0.97896 -0.2910417,-1.95792 -0.5291667,-2.91042 -1.27,-5.10645 -4.3391666,-9.81604 -9.0222915,-13.0175 -4.3391666,-2.98979 -9.3662496,-4.23333 -14.2345836,-3.91583 -1.375833,0.0794 -2.725208,0.3175 -4.048125,0.635 0.423334,3.75708 1.799167,7.38188 4.048125,10.50396 1.481667,2.09021 3.33375,3.91583 5.529792,5.45042 z"
       id="path927"
       style="stroke-width:0.26458332;fill:#008000" />
  </g>
</svg>
